<?xml version="1.0" encoding="UTF-8"?>
<svg id="Layer_1" xmlns="http://www.w3.org/2000/svg" version="1.1" viewBox="0 0 512 512">
  <!-- Generator: Adobe Illustrator 29.7.1, SVG Export Plug-In . SVG Version: 2.1.1 Build 8)  -->
  <defs>
    <style>
      .st0 {
        fill: #fff;
      }
    </style>
  </defs>
  <path class="st0" d="M284,459v-149h53l8-54h-61v-40.5c0-1.78,3.27-12.58,4.22-14.78,2.55-5.86,11.54-15.72,18.28-15.72h38l1.5-1.5v-45.5l-32.46-3.04c-29.61-.66-60.08,4.42-76.06,32.02-15.44,26.68-11.98,59.27-12.48,89.02h-50v54h50v148c-85.13-12.07-155.51-80.31-170.52-164.98C26.71,136.44,177.85,9.06,327.52,63.98c89.88,32.98,144.88,126.29,131.34,221.37-12.81,89.99-85.27,160.76-174.86,173.64Z"/>
</svg>